<svg width="12" height="12" viewBox="0 0 12 12" fill="none" xmlns="http://www.w3.org/2000/svg">
<g clip-path="url(#clip0_2660_2353)">
<path d="M10.5092 6.71334C10.1236 6.71341 9.75317 6.86369 9.47646 7.13231L8.88802 6.83807C9.36835 5.26274 8.48067 3.59631 6.90535 3.11598C6.32911 2.9403 5.71315 2.94325 5.13863 3.12445L4.7937 2.50169C5.34734 1.89545 5.3047 0.955188 4.69847 0.40157C4.09224 -0.15207 3.15199 -0.109437 2.59835 0.496797C2.04471 1.10303 2.08735 2.04327 2.69358 2.59691C2.9686 2.84807 3.32787 2.98684 3.70029 2.98577C3.77177 2.98373 3.84302 2.97658 3.9135 2.96439L4.25543 3.58216C2.9603 4.54326 2.66965 6.36269 3.60087 7.67945L2.1526 9.07106C1.38427 8.72697 0.482486 9.07087 0.1384 9.8392C-0.205686 10.6075 0.138212 11.5093 0.90654 11.8534C1.67487 12.1975 2.57665 11.8536 2.92074 11.0853C3.11245 10.6572 3.0964 10.1646 2.87724 9.74995L4.29668 8.38567C5.62303 9.34633 7.47694 9.05071 8.43872 7.72516L9.03513 8.02335C9.02571 8.08323 9.02009 8.14366 9.01824 8.20427C9.01824 9.02772 9.68578 9.69529 10.5093 9.69529C11.3327 9.69529 12.0003 9.02781 12.0003 8.20436C12.0003 7.38091 11.3327 6.71334 10.5092 6.71334Z" fill="white"/>
</g>
<defs>
<clipPath id="clip0_2660_2353">
<rect width="12" height="12" fill="white"/>
</clipPath>
</defs>
</svg>
