<svg width="12" height="12" viewBox="0 0 12 12" fill="none" xmlns="http://www.w3.org/2000/svg">
<g clip-path="url(#clip0_2261_1806)">
<path d="M6.93009 12H5.06909C3.89866 12.0052 2.77309 11.5501 1.93509 10.733C1.06175 9.85277 0.424289 8.76667 0.0815849 7.575C-0.00690881 7.2762 -0.0245533 6.96089 0.0300513 6.65408C0.0846559 6.34728 0.210007 6.05742 0.39616 5.8075C0.582313 5.55758 0.824145 5.35448 1.10247 5.21431C1.3808 5.07415 1.68796 5.00077 1.99959 5H9.99959C10.3113 5.00072 10.6185 5.07405 10.8969 5.21418C11.1753 5.35431 11.4172 5.55739 11.6034 5.8073C11.7897 6.05721 11.9151 6.34708 11.9698 6.65392C12.0245 6.96076 12.007 7.27612 11.9186 7.575C11.5761 8.76687 10.9384 9.85307 10.0646 10.733C9.22658 11.5504 8.10073 12.0055 6.93009 12ZM7.99959 3C8.00047 2.71005 7.94378 2.4228 7.8328 2.15493C7.72182 1.88705 7.55876 1.64388 7.35309 1.4395C7.24046 1.32741 7.15121 1.19407 7.09053 1.04721C7.02984 0.900349 6.99893 0.742901 6.99959 0.584V0.5C6.99959 0.367392 6.94691 0.240215 6.85314 0.146447C6.75937 0.0526784 6.63219 0 6.49959 0C6.36698 0 6.2398 0.0526784 6.14603 0.146447C6.05226 0.240215 5.99959 0.367392 5.99959 0.5V0.584C5.99875 0.874021 6.05546 1.16133 6.16643 1.42928C6.2774 1.69723 6.44044 1.9405 6.64609 2.145C6.75866 2.25703 6.84787 2.39029 6.90855 2.53706C6.96923 2.68383 7.00017 2.84118 6.99959 3C6.99959 3.13261 7.05226 3.25979 7.14603 3.35355C7.2398 3.44732 7.36698 3.5 7.49959 3.5C7.63219 3.5 7.75937 3.44732 7.85314 3.35355C7.94691 3.25979 7.99959 3.13261 7.99959 3ZM5.99959 3.5V3.346C6.00037 3.05611 5.94368 2.76893 5.8328 2.50108C5.72192 2.23323 5.55904 1.99002 5.35359 1.7855C5.24111 1.67369 5.15191 1.54069 5.09114 1.39419C5.03038 1.24769 4.99926 1.0906 4.99959 0.932V0.5C4.99959 0.367392 4.94691 0.240215 4.85314 0.146447C4.75937 0.0526784 4.63219 0 4.49959 0C4.36698 0 4.2398 0.0526784 4.14603 0.146447C4.05226 0.240215 3.99959 0.367392 3.99959 0.5V0.932C3.99884 1.22193 4.05559 1.50913 4.16656 1.77699C4.27754 2.04485 4.44052 2.28804 4.64609 2.4925C4.75848 2.60435 4.84758 2.73737 4.90826 2.88387C4.96893 3.03037 4.99997 3.18744 4.99959 3.346V3.5C4.99959 3.63261 5.05226 3.75979 5.14603 3.85355C5.2398 3.94732 5.36698 4 5.49959 4C5.63219 4 5.75937 3.94732 5.85314 3.85355C5.94691 3.75979 5.99959 3.63261 5.99959 3.5Z" fill="white"/>
</g>
<defs>
<clipPath id="clip0_2261_1806">
<rect width="12" height="12" fill="white"/>
</clipPath>
</defs>
</svg>
