<svg width="12" height="12" viewBox="0 0 12 12" fill="none" xmlns="http://www.w3.org/2000/svg">
<g clip-path="url(#clip0_2261_1778)">
<path d="M6 7.49561C5.17158 7.49561 4.5 8.16718 4.5 8.99561V11.9956H7.5V8.99561C7.5 8.16718 6.82842 7.49561 6 7.49561Z" fill="white"/>
<path d="M8.50001 8.99595V11.9959H10.5C11.3284 11.9959 12 11.3244 12 10.4959V5.93545C12.0001 5.6757 11.8992 5.42609 11.7185 5.23945L7.46951 0.645938C6.71979 -0.165234 5.45445 -0.215038 4.64327 0.53468C4.60474 0.570306 4.56762 0.607407 4.53202 0.645938L0.290508 5.23795C0.104367 5.42536 -7.0277e-05 5.67881 3.54804e-08 5.94295V10.4959C3.54804e-08 11.3244 0.671578 11.9959 1.5 11.9959H3.49999V8.99595C3.50934 7.63254 4.61013 6.51917 5.9392 6.4871C7.31273 6.45396 8.48953 7.5863 8.50001 8.99595Z" fill="white"/>
<path d="M6 7.49561C5.17158 7.49561 4.5 8.16718 4.5 8.99561V11.9956H7.5V8.99561C7.5 8.16718 6.82842 7.49561 6 7.49561Z" fill="white"/>
</g>
<defs>
<clipPath id="clip0_2261_1778">
<rect width="12" height="12" fill="white"/>
</clipPath>
</defs>
</svg>
