<svg width="12" height="12" viewBox="0 0 12 12" fill="none" xmlns="http://www.w3.org/2000/svg">
<mask id="path-1-inside-1_2297_1936" fill="white">
<path d="M3.13804 7.04576L5.28364 9.18637C5.47062 9.37223 5.72355 9.47656 5.9872 9.47656C6.25084 9.47656 6.50377 9.37223 6.69075 9.18637L8.83635 7.04576C8.92928 6.95227 8.98145 6.8258 8.98145 6.69398C8.98145 6.56216 8.92928 6.43569 8.83635 6.3422C8.78996 6.29543 8.73477 6.25831 8.67397 6.23298C8.61316 6.20765 8.54794 6.19461 8.48207 6.19461C8.4162 6.19461 8.35098 6.20765 8.29018 6.23298C8.22937 6.25831 8.17419 6.29543 8.1278 6.3422L6.48617 7.98383L6.48617 2.4951C6.48617 2.36276 6.4336 2.23585 6.34002 2.14227C6.24645 2.04869 6.11953 1.99612 5.9872 1.99612C5.85486 1.99612 5.72794 2.04869 5.63437 2.14227C5.54079 2.23585 5.48822 2.36276 5.48822 2.4951L5.48822 7.98383L3.84659 6.3422C3.75329 6.24824 3.62649 6.1952 3.49408 6.19473C3.36167 6.19426 3.2345 6.24641 3.14054 6.33971C3.04658 6.43301 2.99353 6.55981 2.99306 6.69222C2.99259 6.82463 3.04475 6.9518 3.13804 7.04576V7.04576Z"/>
</mask>
<path d="M3.13804 7.04576L5.28364 9.18637C5.47062 9.37223 5.72355 9.47656 5.9872 9.47656C6.25084 9.47656 6.50377 9.37223 6.69075 9.18637L8.83635 7.04576C8.92928 6.95227 8.98145 6.8258 8.98145 6.69398C8.98145 6.56216 8.92928 6.43569 8.83635 6.3422C8.78996 6.29543 8.73477 6.25831 8.67397 6.23298C8.61316 6.20765 8.54794 6.19461 8.48207 6.19461C8.4162 6.19461 8.35098 6.20765 8.29018 6.23298C8.22937 6.25831 8.17419 6.29543 8.1278 6.3422L6.48617 7.98383L6.48617 2.4951C6.48617 2.36276 6.4336 2.23585 6.34002 2.14227C6.24645 2.04869 6.11953 1.99612 5.9872 1.99612C5.85486 1.99612 5.72794 2.04869 5.63437 2.14227C5.54079 2.23585 5.48822 2.36276 5.48822 2.4951L5.48822 7.98383L3.84659 6.3422C3.75329 6.24824 3.62649 6.1952 3.49408 6.19473C3.36167 6.19426 3.2345 6.24641 3.14054 6.33971C3.04658 6.43301 2.99353 6.55981 2.99306 6.69222C2.99259 6.82463 3.04475 6.9518 3.13804 7.04576V7.04576Z" fill="#5B9FFF"/>
<path d="M5.28364 9.18637L4.57736 9.8943L4.57864 9.89557L5.28364 9.18637ZM6.69075 9.18637L7.39575 9.89557L7.39703 9.89429L6.69075 9.18637ZM8.83635 7.04576L9.54264 7.75369L9.54555 7.75076L8.83635 7.04576ZM8.98145 6.69398L9.98145 6.69398L8.98145 6.69398ZM8.83635 6.3422L8.12635 7.04641L8.12714 7.0472L8.83635 6.3422ZM8.1278 6.3422L8.83491 7.04932L8.8378 7.0464L8.1278 6.3422ZM6.48617 7.98383H5.48617V10.398L7.19328 8.69094L6.48617 7.98383ZM5.48822 7.98383L4.78111 8.69094L6.48822 10.398V7.98383H5.48822ZM3.84659 6.3422L3.13698 7.04681L3.13948 7.04931L3.84659 6.3422ZM2.43176 7.75369L4.57736 9.89429L5.98992 8.47844L3.84433 6.33783L2.43176 7.75369ZM4.57864 9.89557C4.95298 10.2677 5.45936 10.4766 5.9872 10.4766V8.47656C5.98774 8.47656 5.98826 8.47678 5.98864 8.47716L4.57864 9.89557ZM5.9872 10.4766C6.51503 10.4766 7.02141 10.2677 7.39575 9.89557L5.98575 8.47716C5.98613 8.47678 5.98665 8.47656 5.9872 8.47656V10.4766ZM7.39703 9.89429L9.54263 7.75369L8.13006 6.33783L5.98447 8.47844L7.39703 9.89429ZM9.54555 7.75076C9.82474 7.46991 9.98145 7.08999 9.98145 6.69398L7.98145 6.69398C7.98145 6.56162 8.03382 6.43463 8.12714 6.34076L9.54555 7.75076ZM9.98145 6.69398C9.98145 6.29797 9.82474 5.91806 9.54555 5.6372L8.12714 7.0472C8.03382 6.95333 7.98145 6.82634 7.98145 6.69398L9.98145 6.69398ZM9.54635 5.638C9.407 5.4975 9.24121 5.38599 9.05855 5.30989L8.28939 7.15607C8.22834 7.13064 8.17292 7.09337 8.12635 7.0464L9.54635 5.638ZM9.05855 5.30989C8.87588 5.23379 8.67996 5.19461 8.48207 5.19461V7.19461C8.41593 7.19461 8.35045 7.18151 8.28939 7.15607L9.05855 5.30989ZM8.48207 5.19461C8.28419 5.19461 8.08827 5.23379 7.9056 5.30989L8.67476 7.15607C8.6137 7.18151 8.54822 7.19461 8.48207 7.19461V5.19461ZM7.9056 5.30989C7.72294 5.38599 7.55715 5.4975 7.4178 5.638L8.8378 7.0464C8.79122 7.09337 8.73581 7.13064 8.67476 7.15607L7.9056 5.30989ZM7.42069 5.6351L5.77906 7.27673L7.19328 8.69094L8.83491 7.04931L7.42069 5.6351ZM7.48617 7.98383L7.48617 2.4951L5.48617 2.4951L5.48617 7.98383H7.48617ZM7.48617 2.4951C7.48617 2.09755 7.32824 1.71628 7.04713 1.43516L5.63292 2.84938C5.53896 2.75542 5.48617 2.62798 5.48617 2.4951L7.48617 2.4951ZM7.04713 1.43516C6.76602 1.15405 6.38475 0.996124 5.9872 0.996124L5.9872 2.99612C5.85432 2.99612 5.72688 2.94334 5.63292 2.84938L7.04713 1.43516ZM5.9872 0.996124C5.58964 0.996124 5.20837 1.15405 4.92726 1.43516L6.34147 2.84938C6.24751 2.94334 6.12007 2.99612 5.9872 2.99612L5.9872 0.996124ZM4.92726 1.43516C4.64615 1.71628 4.48822 2.09755 4.48822 2.4951L6.48822 2.4951C6.48822 2.62798 6.43543 2.75542 6.34147 2.84938L4.92726 1.43516ZM4.48822 2.4951L4.48822 7.98383L6.48822 7.98383L6.48822 2.4951L4.48822 2.4951ZM6.19533 7.27673L4.5537 5.6351L3.13948 7.04931L4.78111 8.69094L6.19533 7.27673ZM4.55619 5.6376C4.27602 5.35544 3.89524 5.19614 3.49761 5.19473L3.49055 7.19472C3.35774 7.19425 3.23056 7.14104 3.13699 7.04681L4.55619 5.6376ZM3.49761 5.19473C3.09999 5.19333 2.71809 5.34994 2.43593 5.63011L3.84514 7.04931C3.7509 7.14289 3.62335 7.19519 3.49055 7.19472L3.49761 5.19473ZM2.43593 5.63011C2.15378 5.91028 1.99447 6.29106 1.99307 6.68868L3.99306 6.69575C3.99259 6.82856 3.93938 6.95574 3.84514 7.04931L2.43593 5.63011ZM1.99307 6.68868C1.99166 7.08631 2.14828 7.46821 2.42844 7.75036L3.84764 6.34116C3.94122 6.43539 3.99353 6.56294 3.99306 6.69575L1.99307 6.68868Z" fill="#5B9FFF" mask="url(#path-1-inside-1_2297_1936)"/>
</svg>
