<svg width="276" height="66" viewBox="0 0 276 66" fill="none" xmlns="http://www.w3.org/2000/svg">
<path d="M40.1529 28.8553H29.0736C28.995 27.9386 28.7854 27.107 28.4449 26.3605C28.1175 25.614 27.6592 24.9723 27.0698 24.4353C26.4936 23.8853 25.793 23.4662 24.9679 23.1781C24.1428 22.8769 23.2065 22.7263 22.1588 22.7263C20.3253 22.7263 18.7734 23.1716 17.5031 24.0621C16.2458 24.9526 15.2898 26.2295 14.635 27.8927C13.9933 29.556 13.6724 31.5531 13.6724 33.8842C13.6724 36.3463 13.9998 38.409 14.6546 40.0722C15.3225 41.7223 16.2851 42.9665 17.5424 43.8046C18.7996 44.6297 20.3122 45.0422 22.0802 45.0422C23.0886 45.0422 23.9922 44.9178 24.7911 44.669C25.59 44.407 26.2841 44.0338 26.8734 43.5492C27.4627 43.0647 27.9407 42.4819 28.3074 41.8009C28.6872 41.1068 28.9426 40.3276 29.0736 39.4632L40.1529 39.5418C40.022 41.2443 39.544 42.9796 38.7189 44.7475C37.8938 46.5024 36.7217 48.1264 35.2026 49.6193C33.6965 51.0992 31.8303 52.2909 29.6039 53.1946C27.3776 54.0982 24.7911 54.55 21.8445 54.55C18.1513 54.55 14.838 53.7577 11.9044 52.1731C8.98399 50.5884 6.67251 48.2573 4.97001 45.1797C3.2806 42.1021 2.43589 38.337 2.43589 33.8842C2.43589 29.4053 3.30024 25.6336 5.02894 22.5691C6.75764 19.4915 9.08876 17.167 12.0223 15.5954C14.9559 14.0108 18.2299 13.2184 21.8445 13.2184C24.3851 13.2184 26.7228 13.5655 28.8575 14.2596C30.9921 14.9537 32.8649 15.9687 34.4757 17.3045C36.0866 18.6272 37.3831 20.2577 38.3653 22.1959C39.3475 24.1341 39.9434 26.3539 40.1529 28.8553ZM68.9171 13.7685H79.8393V39.5418C79.8393 42.6063 79.1059 45.2583 77.6392 47.4977C76.1855 49.7241 74.1556 51.4462 71.5494 52.6642C68.9433 53.869 65.9181 54.4715 62.4738 54.4715C59.0033 54.4715 55.965 53.869 53.3588 52.6642C50.7527 51.4462 48.7228 49.7241 47.2691 47.4977C45.8285 45.2583 45.1082 42.6063 45.1082 39.5418V13.7685H56.0304V38.5989C56.0304 39.843 56.3055 40.9562 56.8555 41.9384C57.4055 42.9075 58.1651 43.6671 59.1342 44.2171C60.1164 44.7672 61.2296 45.0422 62.4738 45.0422C63.731 45.0422 64.8442 44.7672 65.8133 44.2171C66.7824 43.6671 67.542 42.9075 68.092 41.9384C68.6421 40.9562 68.9171 39.843 68.9171 38.5989V13.7685ZM85.0303 54V13.7685H95.9525V30.034H96.5026L108.603 13.7685H121.333L107.739 31.6841L121.647 54H108.603L99.5671 38.9132L95.9525 43.6278V54H85.0303ZM135.497 13.7685V54H124.574V13.7685H135.497ZM140.673 13.7685H154.267L163.617 36.5559H164.089L173.439 13.7685H187.033V54H176.347V30.7412H176.032L167.075 53.6857H160.631L151.674 30.584H151.359V54H140.673V13.7685ZM231.184 33.8842C231.184 38.3631 230.313 42.1414 228.571 45.219C226.829 48.2835 224.479 50.6081 221.519 52.1927C218.559 53.7643 215.259 54.55 211.618 54.55C207.951 54.55 204.638 53.7577 201.678 52.1731C198.731 50.5753 196.387 48.2442 194.645 45.1797C192.917 42.1021 192.052 38.337 192.052 33.8842C192.052 29.4053 192.917 25.6336 194.645 22.5691C196.387 19.4915 198.731 17.167 201.678 15.5954C204.638 14.0108 207.951 13.2184 211.618 13.2184C215.259 13.2184 218.559 14.0108 221.519 15.5954C224.479 17.167 226.829 19.4915 228.571 22.5691C230.313 25.6336 231.184 29.4053 231.184 33.8842ZM219.947 33.8842C219.947 31.4745 219.626 29.4446 218.985 27.7945C218.356 26.1313 217.42 24.8741 216.176 24.0228C214.945 23.1585 213.425 22.7263 211.618 22.7263C209.811 22.7263 208.285 23.1585 207.041 24.0228C205.81 24.8741 204.874 26.1313 204.232 27.7945C203.603 29.4446 203.289 31.4745 203.289 33.8842C203.289 36.2939 203.603 38.3304 204.232 39.9936C204.874 41.6437 205.81 42.901 207.041 43.7653C208.285 44.6166 209.811 45.0422 211.618 45.0422C213.425 45.0422 214.945 44.6166 216.176 43.7653C217.42 42.901 218.356 41.6437 218.985 39.9936C219.626 38.3304 219.947 36.2939 219.947 33.8842ZM244.149 54H232.363L245.642 13.7685H260.572L273.851 54H262.065L253.264 24.8479H252.95L244.149 54ZM241.949 38.1274H264.108V46.2994H241.949V38.1274Z" fill="#957658"/>
<circle cx="222.43" cy="13.8297" r="10.1417" fill="#E1D3C1"/>
<ellipse cx="209.522" cy="34.1138" rx="11.9856" ry="13.8296" fill="#957658"/>
<circle cx="205.833" cy="26.7376" r="2.76592" fill="#E1D3C1"/>
<circle cx="205.833" cy="37.8006" r="2.76592" fill="#E1D3C1"/>
<circle cx="216.898" cy="37.8006" r="2.76592" fill="#E1D3C1"/>
</svg>
