<svg width="231" height="56" viewBox="0 0 231 56" fill="none" xmlns="http://www.w3.org/2000/svg">
<path d="M33.6956 23.899H24.398C24.332 23.1297 24.1562 22.4319 23.8705 21.8054C23.5957 21.179 23.2111 20.6405 22.7165 20.1899C22.2329 19.7283 21.645 19.3766 20.9526 19.1348C20.2602 18.8821 19.4744 18.7557 18.5952 18.7557C17.0566 18.7557 15.7543 19.1293 14.6882 19.8767C13.6332 20.624 12.8309 21.6955 12.2814 23.0913C11.7429 24.487 11.4736 26.163 11.4736 28.1192C11.4736 30.1854 11.7484 31.9163 12.2979 33.312C12.8584 34.6968 13.6662 35.7409 14.7212 36.4442C15.7763 37.1366 17.0456 37.4828 18.5293 37.4828C19.3755 37.4828 20.1338 37.3784 20.8042 37.1696C21.4746 36.9498 22.0571 36.6365 22.5516 36.2299C23.0462 35.8233 23.4473 35.3342 23.7551 34.7627C24.0738 34.1803 24.2881 33.5264 24.398 32.801L33.6956 32.8669C33.5857 34.2957 33.1846 35.7518 32.4922 37.2355C31.7998 38.7082 30.8162 40.0709 29.5413 41.3238C28.2775 42.5657 26.7114 43.5658 24.8431 44.3241C22.9748 45.0824 20.8042 45.4616 18.3315 45.4616C15.2323 45.4616 12.4518 44.7967 9.98998 43.4669C7.5392 42.1371 5.59945 40.1808 4.17074 37.5982C2.75302 35.0155 2.04416 31.8559 2.04416 28.1192C2.04416 24.3606 2.7695 21.1955 4.22019 18.6238C5.67088 16.0411 7.62712 14.0904 10.0889 12.7716C12.5507 11.4418 15.2982 10.7769 18.3315 10.7769C20.4635 10.7769 22.4253 11.0681 24.2166 11.6506C26.008 12.2331 27.5796 13.0848 28.9314 14.2058C30.2832 15.3158 31.3712 16.6841 32.1954 18.3106C33.0197 19.9371 33.5198 21.7999 33.6956 23.899ZM57.8339 11.2385H66.9997V32.8669C66.9997 35.4386 66.3842 37.6641 65.1533 39.5434C63.9334 41.4117 62.23 42.8569 60.0429 43.879C57.8559 44.8901 55.3172 45.3956 52.4268 45.3956C49.5144 45.3956 46.9647 44.8901 44.7777 43.879C42.5907 42.8569 40.8872 41.4117 39.6673 39.5434C38.4584 37.6641 37.854 35.4386 37.854 32.8669V11.2385H47.0197V32.0757C47.0197 33.1197 47.2505 34.0539 47.7121 34.8781C48.1736 35.6914 48.8111 36.3288 49.6243 36.7904C50.4486 37.252 51.3828 37.4828 52.4268 37.4828C53.4819 37.4828 54.416 37.252 55.2293 36.7904C56.0425 36.3288 56.68 35.6914 57.1416 34.8781C57.6031 34.0539 57.8339 33.1197 57.8339 32.0757V11.2385ZM71.3558 45V11.2385H80.5216V24.8882H80.9832L91.138 11.2385H101.82L90.4126 26.2729L102.084 45H91.138L83.5548 32.3394L80.5216 36.2959V45H71.3558ZM113.706 11.2385V45H104.54V11.2385H113.706ZM118.05 11.2385H129.458L137.305 30.3612H137.7L145.547 11.2385H156.955V45H147.987V25.4816H147.723L140.206 44.7362H134.799L127.282 25.3497H127.018V45H118.05V11.2385ZM194.005 28.1192C194.005 31.8778 193.274 35.0485 191.813 37.6312C190.351 40.2028 188.378 42.1536 185.894 43.4834C183.411 44.8022 180.641 45.4616 177.586 45.4616C174.509 45.4616 171.728 44.7967 169.245 43.4669C166.772 42.1261 164.805 40.1699 163.343 37.5982C161.892 35.0155 161.167 31.8559 161.167 28.1192C161.167 24.3606 161.892 21.1955 163.343 18.6238C164.805 16.0411 166.772 14.0904 169.245 12.7716C171.728 11.4418 174.509 10.7769 177.586 10.7769C180.641 10.7769 183.411 11.4418 185.894 12.7716C188.378 14.0904 190.351 16.0411 191.813 18.6238C193.274 21.1955 194.005 24.3606 194.005 28.1192ZM184.576 28.1192C184.576 26.0971 184.306 24.3936 183.768 23.0088C183.24 21.6131 182.455 20.5581 181.411 19.8437C180.377 19.1184 179.103 18.7557 177.586 18.7557C176.069 18.7557 174.789 19.1184 173.745 19.8437C172.712 20.5581 171.926 21.6131 171.388 23.0088C170.86 24.3936 170.596 26.0971 170.596 28.1192C170.596 30.1414 170.86 31.8504 171.388 33.2461C171.926 34.6309 172.712 35.6859 173.745 36.4113C174.789 37.1256 176.069 37.4828 177.586 37.4828C179.103 37.4828 180.377 37.1256 181.411 36.4113C182.455 35.6859 183.24 34.6309 183.768 33.2461C184.306 31.8504 184.576 30.1414 184.576 28.1192ZM204.885 45H194.994L206.138 11.2385H218.667L229.811 45H219.92L212.534 20.5361H212.271L204.885 45ZM203.039 31.68H221.634V38.5378H203.039V31.68Z" fill="#957658"/>
<circle cx="186.659" cy="11.6054" r="8.51072" fill="white"/>
<ellipse cx="175.827" cy="28.6275" rx="10.0581" ry="11.6055" fill="#957658"/>
<circle cx="172.731" cy="22.4378" r="2.32111" fill="white"/>
<circle cx="172.731" cy="31.7215" r="2.32111" fill="white"/>
<circle cx="182.016" cy="31.7215" r="2.32111" fill="white"/>
</svg>
