<svg width="99" height="24" viewBox="0 0 99 24" fill="none" xmlns="http://www.w3.org/2000/svg">
<path d="M14.374 9.9987H10.4078C10.3796 9.67052 10.3046 9.37282 10.1827 9.1056C10.0655 8.83837 9.90143 8.60865 9.69047 8.41644C9.48419 8.21953 9.23337 8.06951 8.93801 7.96637C8.64266 7.85854 8.30745 7.80463 7.9324 7.80463C7.27605 7.80463 6.7205 7.96403 6.26575 8.28282C5.81569 8.60162 5.47345 9.05872 5.23904 9.65412C5.00932 10.2495 4.89446 10.9645 4.89446 11.799C4.89446 12.6803 5.01166 13.4187 5.24607 14.0141C5.48517 14.6048 5.82975 15.0502 6.27982 15.3503C6.72988 15.6456 7.27137 15.7933 7.90427 15.7933C8.26526 15.7933 8.58874 15.7487 8.87472 15.6597C9.1607 15.5659 9.40917 15.4323 9.62014 15.2588C9.83111 15.0854 10.0022 14.8767 10.1335 14.633C10.2695 14.3845 10.3609 14.1055 10.4078 13.7961L14.374 13.8243C14.3271 14.4337 14.156 15.0549 13.8606 15.6878C13.5652 16.316 13.1457 16.8974 12.6018 17.4318C12.0627 17.9616 11.3946 18.3882 10.5976 18.7117C9.80064 19.0352 8.87472 19.1969 7.81988 19.1969C6.49782 19.1969 5.31171 18.9133 4.26155 18.346C3.21609 17.7787 2.38863 16.9442 1.77916 15.8425C1.17439 14.7408 0.872001 13.3929 0.872001 11.799C0.872001 10.1956 1.18142 8.84541 1.80026 7.74837C2.4191 6.64665 3.2536 5.8145 4.30375 5.25192C5.3539 4.68465 6.52594 4.40101 7.81988 4.40101C8.72939 4.40101 9.56623 4.52525 10.3304 4.77372C11.0946 5.0222 11.765 5.38553 12.3416 5.86372C12.9183 6.33723 13.3824 6.92091 13.734 7.61476C14.0856 8.30861 14.2989 9.10325 14.374 9.9987ZM24.671 4.59792H28.5809V13.8243C28.5809 14.9213 28.3184 15.8706 27.7933 16.6723C27.2729 17.4693 26.5462 18.0858 25.6133 18.5218C24.6803 18.9531 23.5974 19.1688 22.3644 19.1688C21.122 19.1688 20.0343 18.9531 19.1014 18.5218C18.1684 18.0858 17.4418 17.4693 16.9214 16.6723C16.4057 15.8706 16.1478 14.9213 16.1478 13.8243V4.59792H20.0578V13.4867C20.0578 13.9321 20.1562 14.3306 20.3531 14.6822C20.55 15.0291 20.822 15.301 21.1689 15.4979C21.5205 15.6948 21.919 15.7933 22.3644 15.7933C22.8144 15.7933 23.2129 15.6948 23.5599 15.4979C23.9068 15.301 24.1787 15.0291 24.3756 14.6822C24.5725 14.3306 24.671 13.9321 24.671 13.4867V4.59792ZM30.4392 19V4.59792H34.3491V10.4206H34.546L38.8779 4.59792H43.4348L38.5685 11.0113L43.5473 19H38.8779L35.643 13.5992L34.3491 15.287V19H30.4392ZM48.5051 4.59792V19H44.5951V4.59792H48.5051ZM50.3581 4.59792H55.2244L58.5718 12.7553H58.7405L62.0879 4.59792H66.9542V19H63.1287V10.6738H63.0162L59.8094 18.8875H57.5029L54.2961 10.6175H54.1836V19H50.3581V4.59792ZM82.7592 11.799C82.7592 13.4023 82.4475 14.7549 81.824 15.8566C81.2004 16.9536 80.3589 17.7858 79.2994 18.353C78.2398 18.9156 77.0584 19.1969 75.7551 19.1969C74.4424 19.1969 73.2563 18.9133 72.1968 18.346C71.1419 17.774 70.3028 16.9395 69.6792 15.8425C69.0604 14.7408 68.751 13.3929 68.751 11.799C68.751 10.1956 69.0604 8.84541 69.6792 7.74837C70.3028 6.64665 71.1419 5.8145 72.1968 5.25192C73.2563 4.68465 74.4424 4.40101 75.7551 4.40101C77.0584 4.40101 78.2398 4.68465 79.2994 5.25192C80.3589 5.8145 81.2004 6.64665 81.824 7.74837C82.4475 8.84541 82.7592 10.1956 82.7592 11.799ZM78.7368 11.799C78.7368 10.9363 78.6219 10.2097 78.3922 9.61895C78.1672 9.02356 77.832 8.57349 77.3866 8.26876C76.9459 7.95934 76.4021 7.80463 75.7551 7.80463C75.1081 7.80463 74.562 7.95934 74.1166 8.26876C73.6759 8.57349 73.3407 9.02356 73.111 9.61895C72.8859 10.2097 72.7734 10.9363 72.7734 11.799C72.7734 12.6616 72.8859 13.3906 73.111 13.986C73.3407 14.5767 73.6759 15.0268 74.1166 15.3362C74.562 15.6409 75.1081 15.7933 75.7551 15.7933C76.4021 15.7933 76.9459 15.6409 77.3866 15.3362C77.832 15.0268 78.1672 14.5767 78.3922 13.986C78.6219 13.3906 78.7368 12.6616 78.7368 11.799ZM87.4005 19H83.1812L87.935 4.59792H93.2795L98.0333 19H93.814L90.6635 8.56411H90.551L87.4005 19ZM86.6129 13.3179H94.5453V16.2434H86.6129V13.3179Z" fill="white"/>
<circle cx="80.2018" cy="4.95084" r="3.63053" fill="#555555"/>
<ellipse cx="75.5816" cy="12.2115" rx="4.29062" ry="4.95072" fill="white"/>
<circle cx="74.2607" cy="9.57169" r="0.990143" fill="#555555"/>
<circle cx="74.2607" cy="13.5316" r="0.990143" fill="#555555"/>
<circle cx="78.2216" cy="13.5316" r="0.990143" fill="#555555"/>
</svg>
