<svg width="14" height="14" viewBox="0 0 14 14" fill="none" xmlns="http://www.w3.org/2000/svg">
<g clip-path="url(#clip0_2455_2020)">
<path d="M12.9549 11.792L10.4007 9.23672C12.3118 6.68271 11.7907 3.06294 9.23672 1.15176C6.68271 -0.759423 3.06294 -0.238305 1.15176 2.3157C-0.759422 4.86971 -0.238305 8.48948 2.3157 10.4007C4.36729 11.9359 7.1851 11.9359 9.23672 10.4007L11.792 12.9559C12.1131 13.2771 12.6338 13.2771 12.9548 12.9559C13.276 12.6348 13.276 12.1142 12.9548 11.7931L12.9549 11.792ZM5.7975 9.90746C3.52762 9.90746 1.68754 8.06738 1.68754 5.7975C1.68754 3.52762 3.52762 1.68754 5.7975 1.68754C8.06738 1.68754 9.90746 3.52762 9.90746 5.7975C9.90505 8.06635 8.06638 9.90505 5.7975 9.90746Z" fill="#BCBCBC"/>
</g>
<defs>
<clipPath id="clip0_2455_2020">
<rect width="13.1968" height="13.1968" fill="white"/>
</clipPath>
</defs>
</svg>
