<svg width="16" height="16" viewBox="0 0 16 16" fill="none" xmlns="http://www.w3.org/2000/svg">
<g clip-path="url(#clip0_2660_2295)">
<path d="M15.2205 6.11395L12.6345 3.52795C12.3696 3.27217 11.9476 3.27952 11.6918 3.54436C11.4423 3.8027 11.4423 4.2123 11.6918 4.47064L14.2778 7.05664C14.3546 7.13498 14.4218 7.2223 14.4778 7.31664C14.4678 7.31664 14.4598 7.3113 14.4498 7.3113L3.9938 7.33264C3.62562 7.33264 3.32715 7.63111 3.32715 7.9993C3.32715 8.36748 3.62562 8.66595 3.9938 8.66595L14.4458 8.64461C14.4645 8.64461 14.4798 8.63527 14.4978 8.63395C14.4387 8.74673 14.3637 8.85045 14.2751 8.94195L11.6891 11.528C11.4243 11.7837 11.417 12.2058 11.6727 12.4706C11.9285 12.7355 12.3506 12.7428 12.6154 12.487C12.621 12.4816 12.6264 12.4762 12.6318 12.4706L15.2178 9.88461C16.2588 8.84327 16.2588 7.15527 15.2178 6.11395H15.2205Z" fill="white"/>
<path d="M4.66763 14.6667H3.33429C2.22973 14.6667 1.33429 13.7712 1.33429 12.6667V3.33334C1.33429 2.22878 2.22973 1.33334 3.33429 1.33334H4.66763C5.03582 1.33334 5.33429 1.03487 5.33429 0.666687C5.33429 0.2985 5.03585 0 4.66763 0H3.33429C1.49429 0.00221875 0.00319531 1.49331 0.000976562 3.33334V12.6667C0.00319531 14.5067 1.49429 15.9978 3.33432 16H4.66766C5.03585 16 5.33432 15.7015 5.33432 15.3333C5.33432 14.9652 5.03585 14.6667 4.66763 14.6667Z" fill="white"/>
</g>
<defs>
<clipPath id="clip0_2660_2295">
<rect width="16" height="16" fill="white"/>
</clipPath>
</defs>
</svg>
