<svg width="13" height="13" viewBox="0 0 13 13" fill="none" xmlns="http://www.w3.org/2000/svg">
<path d="M9.56801 5.64907L7.42242 3.50846C7.23544 3.32259 6.9825 3.21826 6.71886 3.21826C6.45521 3.21826 6.20228 3.32259 6.0153 3.50846L3.86971 5.64907C3.77677 5.74255 3.72461 5.86902 3.72461 6.00084C3.72461 6.13267 3.77677 6.25913 3.86971 6.35262C3.91609 6.39939 3.97128 6.43651 4.03209 6.46184C4.09289 6.48717 4.15811 6.50022 4.22398 6.50022C4.28985 6.50022 4.35507 6.48717 4.41588 6.46184C4.47668 6.43651 4.53187 6.39939 4.57825 6.35262L6.21988 4.71099V10.1997C6.21988 10.3321 6.27245 10.459 6.36603 10.5526C6.45961 10.6461 6.58652 10.6987 6.71886 10.6987C6.8512 10.6987 6.97811 10.6461 7.07169 10.5526C7.16526 10.459 7.21784 10.3321 7.21784 10.1997V4.71099L8.85947 6.35262C8.95276 6.44658 9.07956 6.49963 9.21197 6.5001C9.34438 6.50056 9.47156 6.44841 9.56552 6.35512C9.65948 6.26182 9.71252 6.13502 9.71299 6.00261C9.71346 5.8702 9.66131 5.74302 9.56801 5.64907Z" fill="#FF5B5B"/>
</svg>
